<svg width="75" height="15" viewBox="0 0 75 15" fill="none" xmlns="http://www.w3.org/2000/svg">
<path d="M4.02344 11C3.79948 11 3.59635 10.9453 3.41406 10.8359C3.23698 10.7266 3.10417 10.5729 3.01562 10.375L0.640625 4.9375C0.578125 4.79688 0.546875 4.65625 0.546875 4.51562C0.546875 4.38021 0.572917 4.25 0.625 4.125C0.677083 3.99479 0.75 3.88021 0.84375 3.78125C0.9375 3.68229 1.04688 3.60417 1.17188 3.54688C1.30208 3.48958 1.4401 3.46094 1.58594 3.46094C1.78385 3.46094 1.96875 3.51562 2.14062 3.625C2.3125 3.73438 2.44271 3.88542 2.53125 4.07812L3.96875 7.50781L5.39844 4.08594C5.47656 3.89844 5.60156 3.75 5.77344 3.64062C5.94531 3.52604 6.13281 3.46875 6.33594 3.46875C6.63281 3.46875 6.88281 3.57552 7.08594 3.78906C7.17969 3.88802 7.2526 4 7.30469 4.125C7.35677 4.25 7.38281 4.3776 7.38281 4.50781C7.38802 4.63281 7.35677 4.77865 7.28906 4.94531L4.92969 10.375C4.84635 10.5521 4.72917 10.6979 4.57812 10.8125C4.42708 10.9271 4.24219 10.9896 4.02344 11ZM9.57812 2.82812C9.27604 2.82812 9.01562 2.71875 8.79688 2.5C8.69271 2.39583 8.60938 2.27604 8.54688 2.14062C8.48958 2.00521 8.46094 1.86458 8.46094 1.71875C8.46094 1.41667 8.57292 1.15365 8.79688 0.929688C9.01042 0.716146 9.27083 0.609375 9.57812 0.609375C9.72917 0.609375 9.8724 0.638021 10.0078 0.695312C10.1432 0.747396 10.263 0.825521 10.3672 0.929688C10.5859 1.14844 10.6953 1.41146 10.6953 1.71875C10.6953 2.02083 10.5859 2.28125 10.3672 2.5C10.263 2.60417 10.1432 2.6849 10.0078 2.74219C9.8724 2.79948 9.72917 2.82812 9.57812 2.82812ZM9.57812 11.0859C9.4375 11.0859 9.30208 11.0573 9.17188 11C9.04688 10.9479 8.9375 10.875 8.84375 10.7812C8.74479 10.6875 8.66667 10.5781 8.60938 10.4531C8.55208 10.3229 8.52344 10.1901 8.52344 10.0547V4.49219C8.52344 4.35677 8.55208 4.22656 8.60938 4.10156C8.66667 3.97135 8.74479 3.85938 8.84375 3.76562C8.9375 3.67188 9.04948 3.59896 9.17969 3.54688C9.3151 3.48958 9.45312 3.46094 9.59375 3.46094C9.72917 3.46094 9.85938 3.48958 9.98438 3.54688C10.1146 3.59896 10.2266 3.67188 10.3203 3.76562C10.4141 3.85938 10.4844 3.96875 10.5312 4.09375C10.5833 4.21875 10.6094 4.35156 10.6094 4.49219V10.0547C10.6094 10.1901 10.5807 10.3229 10.5234 10.4531C10.4714 10.5781 10.3984 10.6875 10.3047 10.7812C10.2109 10.875 10.1016 10.9479 9.97656 11C9.85156 11.0573 9.71875 11.0859 9.57812 11.0859ZM12.9531 11C12.8125 11 12.6771 10.974 12.5469 10.9219C12.4167 10.8698 12.3021 10.7969 12.2031 10.7031C11.9896 10.5052 11.8828 10.2656 11.8828 9.98438V7.17188C11.8828 6.67188 11.9792 6.19531 12.1719 5.74219C12.3646 5.28906 12.6328 4.89062 12.9766 4.54688C13.3203 4.20312 13.7161 3.9375 14.1641 3.75C14.612 3.55729 15.0859 3.46094 15.5859 3.46094C16.0911 3.46094 16.5729 3.55729 17.0312 3.75C17.4948 3.9375 17.9036 4.20312 18.2578 4.54688C18.612 4.89062 18.888 5.28906 19.0859 5.74219C19.2891 6.19531 19.3906 6.67188 19.3906 7.17188V9.98438C19.3906 10.2708 19.2943 10.5104 19.1016 10.7031C19.0078 10.7969 18.8984 10.8698 18.7734 10.9219C18.6484 10.974 18.5156 11 18.375 11C18.2292 11 18.0911 10.974 17.9609 10.9219C17.8359 10.8698 17.7266 10.7969 17.6328 10.7031C17.4245 10.5104 17.3203 10.2708 17.3203 9.98438V7.17969C17.3151 6.96094 17.2656 6.7526 17.1719 6.55469C17.0781 6.35156 16.9479 6.17448 16.7812 6.02344C16.6198 5.8724 16.4349 5.75521 16.2266 5.67188C16.0182 5.58854 15.8047 5.54688 15.5859 5.54688C15.3672 5.54688 15.1589 5.58854 14.9609 5.67188C14.763 5.75 14.5938 5.85938 14.4531 6C14.3073 6.14583 14.1901 6.31771 14.1016 6.51562C14.0182 6.70833 13.974 6.91406 13.9688 7.13281V9.98438C13.9688 10.276 13.8698 10.5156 13.6719 10.7031C13.474 10.901 13.2344 11 12.9531 11ZM21.9375 2.82812C21.6354 2.82812 21.375 2.71875 21.1562 2.5C21.0521 2.39583 20.9688 2.27604 20.9062 2.14062C20.849 2.00521 20.8203 1.86458 20.8203 1.71875C20.8203 1.41667 20.9323 1.15365 21.1562 0.929688C21.3698 0.716146 21.6302 0.609375 21.9375 0.609375C22.0885 0.609375 22.2318 0.638021 22.3672 0.695312C22.5026 0.747396 22.6224 0.825521 22.7266 0.929688C22.9453 1.14844 23.0547 1.41146 23.0547 1.71875C23.0547 2.02083 22.9453 2.28125 22.7266 2.5C22.6224 2.60417 22.5026 2.6849 22.3672 2.74219C22.2318 2.79948 22.0885 2.82812 21.9375 2.82812ZM21.9375 11.0859C21.7969 11.0859 21.6615 11.0573 21.5312 11C21.4062 10.9479 21.2969 10.875 21.2031 10.7812C21.1042 10.6875 21.026 10.5781 20.9688 10.4531C20.9115 10.3229 20.8828 10.1901 20.8828 10.0547V4.49219C20.8828 4.35677 20.9115 4.22656 20.9688 4.10156C21.026 3.97135 21.1042 3.85938 21.2031 3.76562C21.2969 3.67188 21.4089 3.59896 21.5391 3.54688C21.6745 3.48958 21.8125 3.46094 21.9531 3.46094C22.0885 3.46094 22.2188 3.48958 22.3438 3.54688C22.474 3.59896 22.5859 3.67188 22.6797 3.76562C22.7734 3.85938 22.8438 3.96875 22.8906 4.09375C22.9427 4.21875 22.9688 4.35156 22.9688 4.49219V10.0547C22.9688 10.1901 22.9401 10.3229 22.8828 10.4531C22.8307 10.5781 22.7578 10.6875 22.6641 10.7812C22.5703 10.875 22.4609 10.9479 22.3359 11C22.2109 11.0573 22.0781 11.0859 21.9375 11.0859Z" fill="#00DF7C"/>
<path d="M29.7891 11.0938C29.2734 11.0938 28.7812 10.9948 28.3125 10.7969C27.849 10.599 27.4427 10.3255 27.0938 9.97656C26.7396 9.6276 26.4635 9.22135 26.2656 8.75781C26.0677 8.28906 25.9688 7.79688 25.9688 7.28125C25.9688 6.76562 26.0677 6.27604 26.2656 5.8125C26.4635 5.34375 26.7396 4.93229 27.0938 4.57812C27.4427 4.22917 27.849 3.95573 28.3125 3.75781C28.7812 3.5599 29.2734 3.46094 29.7891 3.46094C30.2995 3.46094 30.7865 3.5599 31.25 3.75781C31.7188 3.95573 32.1302 4.22917 32.4844 4.57812C32.8333 4.92708 33.1068 5.33333 33.3047 5.79688C33.5078 6.26042 33.612 6.7474 33.6172 7.25781C33.6172 7.39844 33.5703 7.51823 33.4766 7.61719C33.3828 7.71094 33.2604 7.75781 33.1094 7.75781H27.125C27.1667 8.08073 27.263 8.38542 27.4141 8.67188C27.5703 8.95312 27.7682 9.20052 28.0078 9.41406C28.2526 9.6276 28.526 9.79427 28.8281 9.91406C29.1354 10.0339 29.4557 10.0938 29.7891 10.0938C30.1016 10.0938 30.3568 10.0651 30.5547 10.0078C30.7318 9.96094 30.9401 9.86979 31.1797 9.73438C31.2839 9.67188 31.3906 9.64062 31.5 9.64062C31.6406 9.64062 31.7604 9.69792 31.8594 9.8125C31.9583 9.92188 32.0078 10.0469 32.0078 10.1875C32.0078 10.375 31.9245 10.5156 31.7578 10.6094C31.4557 10.7812 31.1719 10.901 30.9062 10.9688C30.5729 11.0521 30.2005 11.0938 29.7891 11.0938ZM32.5547 6.88281C32.513 6.53906 32.4141 6.22135 32.2578 5.92969C32.1068 5.63281 31.9062 5.375 31.6562 5.15625C31.4062 4.9375 31.1224 4.76823 30.8047 4.64844C30.487 4.52344 30.1536 4.46094 29.8047 4.46094C29.4505 4.46094 29.1146 4.52344 28.7969 4.64844C28.4844 4.77344 28.2057 4.94792 27.9609 5.17188C27.7214 5.39062 27.526 5.64844 27.375 5.94531C27.224 6.24219 27.1302 6.55469 27.0938 6.88281H32.5547ZM35.0703 11C34.9245 11 34.7969 10.9505 34.6875 10.8516C34.5833 10.7526 34.5312 10.6302 34.5312 10.4844V7.125C34.5312 6.63021 34.6198 6.15885 34.7969 5.71094C34.974 5.26302 35.224 4.86979 35.5469 4.53125C35.8698 4.19271 36.2474 3.92969 36.6797 3.74219C37.1172 3.55469 37.5833 3.46094 38.0781 3.46094C38.5729 3.46094 39.0365 3.55469 39.4688 3.74219C39.901 3.92969 40.2786 4.1901 40.6016 4.52344C40.9193 4.86198 41.1641 5.25521 41.3359 5.70312C41.513 6.14583 41.6016 6.61719 41.6016 7.11719V10.4844C41.6016 10.6354 41.5521 10.7604 41.4531 10.8594C41.3594 10.9531 41.237 11 41.0859 11C40.9401 11 40.8151 10.9531 40.7109 10.8594C40.612 10.7604 40.5625 10.6354 40.5625 10.4844V7.15625C40.5625 6.79688 40.5 6.45573 40.375 6.13281C40.2552 5.8099 40.0859 5.52865 39.8672 5.28906C39.638 5.04427 39.3698 4.85417 39.0625 4.71875C38.7604 4.58333 38.4323 4.51562 38.0781 4.51562C37.724 4.51562 37.3932 4.58333 37.0859 4.71875C36.7839 4.84896 36.5182 5.03385 36.2891 5.27344C36.0651 5.50781 35.8906 5.78646 35.7656 6.10938C35.6406 6.43229 35.5781 6.77344 35.5781 7.13281V10.4844C35.5781 10.6354 35.5312 10.7604 35.4375 10.8594C35.3438 10.9531 35.2214 11 35.0703 11ZM46.5547 11.0938C46.0391 11.0938 45.5469 10.9948 45.0781 10.7969C44.6146 10.599 44.2083 10.3255 43.8594 9.97656C43.5052 9.6276 43.2292 9.22135 43.0312 8.75781C42.8333 8.28906 42.7344 7.79688 42.7344 7.28125C42.7344 6.76562 42.8333 6.27604 43.0312 5.8125C43.2292 5.34375 43.5052 4.93229 43.8594 4.57812C44.2083 4.22917 44.6146 3.95573 45.0781 3.75781C45.5469 3.5599 46.0391 3.46094 46.5547 3.46094C47.0651 3.46094 47.5521 3.5599 48.0156 3.75781C48.4844 3.95573 48.8958 4.22917 49.25 4.57812C49.599 4.92708 49.8724 5.33333 50.0703 5.79688C50.2734 6.26042 50.3776 6.7474 50.3828 7.25781C50.3828 7.39844 50.3359 7.51823 50.2422 7.61719C50.1484 7.71094 50.026 7.75781 49.875 7.75781H43.8906C43.9323 8.08073 44.0286 8.38542 44.1797 8.67188C44.3359 8.95312 44.5339 9.20052 44.7734 9.41406C45.0182 9.6276 45.2917 9.79427 45.5938 9.91406C45.901 10.0339 46.2214 10.0938 46.5547 10.0938C46.8672 10.0938 47.1224 10.0651 47.3203 10.0078C47.4974 9.96094 47.7057 9.86979 47.9453 9.73438C48.0495 9.67188 48.1562 9.64062 48.2656 9.64062C48.4062 9.64062 48.526 9.69792 48.625 9.8125C48.724 9.92188 48.7734 10.0469 48.7734 10.1875C48.7734 10.375 48.6901 10.5156 48.5234 10.6094C48.2214 10.7812 47.9375 10.901 47.6719 10.9688C47.3385 11.0521 46.9661 11.0938 46.5547 11.0938ZM49.3203 6.88281C49.2786 6.53906 49.1797 6.22135 49.0234 5.92969C48.8724 5.63281 48.6719 5.375 48.4219 5.15625C48.1719 4.9375 47.888 4.76823 47.5703 4.64844C47.2526 4.52344 46.9193 4.46094 46.5703 4.46094C46.2161 4.46094 45.8802 4.52344 45.5625 4.64844C45.25 4.77344 44.9714 4.94792 44.7266 5.17188C44.487 5.39062 44.2917 5.64844 44.1406 5.94531C43.9896 6.24219 43.8958 6.55469 43.8594 6.88281H49.3203ZM51.9531 11C51.8073 11 51.6797 10.9505 51.5703 10.8516C51.4661 10.7526 51.4141 10.6276 51.4141 10.4766V7.44531C51.4141 6.90885 51.5156 6.39844 51.7188 5.91406C51.9271 5.42969 52.2135 5.0026 52.5781 4.63281C52.9479 4.26302 53.3724 3.97656 53.8516 3.77344C54.3307 3.5651 54.8359 3.46094 55.3672 3.46094H55.4297C55.5964 3.46094 55.7266 3.51042 55.8203 3.60938C55.9193 3.70312 55.9688 3.82812 55.9688 3.98438C55.9688 4.13542 55.9167 4.26042 55.8125 4.35938C55.7135 4.45312 55.5859 4.5 55.4297 4.5H55.3672C54.9818 4.5 54.612 4.57552 54.2578 4.72656C53.9036 4.8776 53.5911 5.08854 53.3203 5.35938C53.0495 5.63021 52.8359 5.94792 52.6797 6.3125C52.5286 6.67188 52.4531 7.04948 52.4531 7.44531V10.4766C52.4531 10.6276 52.4036 10.7526 52.3047 10.8516C52.2109 10.9505 52.0938 11 51.9531 11ZM57.9609 14.2891C57.8203 14.2891 57.6927 14.237 57.5781 14.1328C57.4635 14.0339 57.4062 13.9141 57.4062 13.7734C57.4062 13.4714 57.6641 13.237 58.1797 13.0703C58.3672 13.0078 58.5651 12.9609 58.7734 12.9297C58.987 12.9036 59.1693 12.8906 59.3203 12.8906C59.5339 12.8906 59.7448 12.8984 59.9531 12.9141C60.1667 12.9297 60.3776 12.9375 60.5859 12.9375C61.2161 12.9375 61.7057 12.7891 62.0547 12.4922C62.4036 12.1953 62.5781 11.7734 62.5781 11.2266C62.5781 10.9922 62.5469 10.7865 62.4844 10.6094C62.4375 10.4948 62.3698 10.375 62.2812 10.25C61.9479 10.5208 61.5755 10.7292 61.1641 10.875C60.7526 11.0208 60.3229 11.0938 59.875 11.0938C59.3594 11.0938 58.8698 10.9974 58.4062 10.8047C57.9479 10.6068 57.5417 10.3307 57.1875 9.97656C56.8333 9.6276 56.5573 9.22135 56.3594 8.75781C56.1615 8.29427 56.0625 7.80469 56.0625 7.28906C56.0625 6.76823 56.1615 6.27344 56.3594 5.80469C56.5573 5.33594 56.8333 4.92708 57.1875 4.57812C57.5417 4.22396 57.9479 3.95052 58.4062 3.75781C58.8698 3.5599 59.3594 3.46094 59.875 3.46094C60.3958 3.46094 60.888 3.5599 61.3516 3.75781C61.8203 3.95573 62.2292 4.22917 62.5781 4.57812C62.9271 4.93229 63.1979 5.34375 63.3906 5.8125C63.5885 6.27604 63.6875 6.76823 63.6875 7.28906C63.6875 8.08073 63.4583 8.80469 63 9.46094C63.2135 9.6901 63.3672 9.95052 63.4609 10.2422C63.5599 10.5286 63.6094 10.8568 63.6094 11.2266C63.6094 11.6536 63.5365 12.0365 63.3906 12.375C63.25 12.7188 63.0495 13.013 62.7891 13.2578C62.5443 13.487 62.2604 13.6641 61.9375 13.7891C61.6146 13.9141 61.2786 13.9792 60.9297 13.9844C60.6953 13.9844 60.4453 13.9609 60.1797 13.9141C59.888 13.8724 59.625 13.8516 59.3906 13.8516C59.2135 13.8516 59.0339 13.8724 58.8516 13.9141C58.6224 13.9661 58.4297 14.0521 58.2734 14.1719C58.1745 14.25 58.0703 14.2891 57.9609 14.2891ZM59.875 10.0547C60.2604 10.0547 60.6224 9.98438 60.9609 9.84375C61.2995 9.69792 61.5964 9.49479 61.8516 9.23438C62.1068 8.97917 62.3047 8.6849 62.4453 8.35156C62.5859 8.01302 62.6562 7.65885 62.6562 7.28906C62.6562 6.91406 62.5859 6.55729 62.4453 6.21875C62.3047 5.88021 62.1068 5.58333 61.8516 5.32812C61.5964 5.07292 61.2969 4.875 60.9531 4.73438C60.6146 4.58854 60.2552 4.51562 59.875 4.51562C59.4948 4.51562 59.1354 4.58854 58.7969 4.73438C58.4635 4.875 58.1693 5.07292 57.9141 5.32812C57.6589 5.58333 57.4583 5.88021 57.3125 6.21875C57.1719 6.55729 57.1016 6.91406 57.1016 7.28906C57.1016 7.65885 57.1719 8.01302 57.3125 8.35156C57.4583 8.6849 57.6589 8.97917 57.9141 9.23438C58.1693 9.49479 58.4635 9.69792 58.7969 9.84375C59.1354 9.98438 59.4948 10.0547 59.875 10.0547ZM65.375 2.39844C65.1979 2.39844 65.0495 2.33854 64.9297 2.21875C64.8099 2.09375 64.75 1.94531 64.75 1.77344C64.75 1.59635 64.8099 1.44792 64.9297 1.32812C65.0495 1.20833 65.1979 1.14844 65.375 1.14844C65.5521 1.14844 65.7005 1.20833 65.8203 1.32812C65.9453 1.44792 66.0078 1.59635 66.0078 1.77344C66.0078 1.94531 65.9453 2.09375 65.8203 2.21875C65.7005 2.33854 65.5521 2.39844 65.375 2.39844ZM65.375 11.0391C65.2292 11.0391 65.1042 10.9896 65 10.8906C64.8958 10.7865 64.8438 10.6615 64.8438 10.5156V3.99219C64.8438 3.84115 64.8958 3.71615 65 3.61719C65.1042 3.51302 65.2292 3.46094 65.375 3.46094C65.526 3.46094 65.6484 3.51302 65.7422 3.61719C65.8411 3.71615 65.8906 3.84115 65.8906 3.99219V10.5156C65.8906 10.6615 65.8385 10.7865 65.7344 10.8906C65.6354 10.9896 65.5156 11.0391 65.375 11.0391ZM70.8594 11.0938C70.3438 11.0938 69.8568 10.9974 69.3984 10.8047C68.9401 10.6068 68.5365 10.3307 68.1875 9.97656C67.8385 9.6276 67.5677 9.22135 67.375 8.75781C67.1823 8.29427 67.0859 7.80469 67.0859 7.28906C67.0859 6.76823 67.1823 6.27604 67.375 5.8125C67.5677 5.34375 67.8385 4.93229 68.1875 4.57812C68.5365 4.22396 68.9401 3.95052 69.3984 3.75781C69.8568 3.5599 70.3438 3.46094 70.8594 3.46094C71.3802 3.46094 71.8698 3.5599 72.3281 3.75781C72.7865 3.95052 73.1901 4.22396 73.5391 4.57812C73.8828 4.92708 74.151 5.33594 74.3438 5.80469C74.5365 6.27344 74.6328 6.76823 74.6328 7.28906V10.5C74.6328 10.651 74.5807 10.7786 74.4766 10.8828C74.3724 10.987 74.2448 11.0391 74.0938 11.0391C73.9427 11.0391 73.8203 10.9896 73.7266 10.8906C73.6328 10.7865 73.5859 10.6562 73.5859 10.5L73.5781 9.9375C73.224 10.3073 72.8151 10.5938 72.3516 10.7969C71.8932 10.9948 71.3958 11.0938 70.8594 11.0938ZM70.8594 10.0547C71.2448 10.0547 71.6042 9.98438 71.9375 9.84375C72.276 9.69792 72.5677 9.49479 72.8125 9.23438C73.0573 8.97917 73.2474 8.6849 73.3828 8.35156C73.5182 8.01302 73.5859 7.65885 73.5859 7.28906C73.5859 6.91406 73.5182 6.55729 73.3828 6.21875C73.2474 5.875 73.0573 5.57812 72.8125 5.32812C72.5625 5.07292 72.2708 4.875 71.9375 4.73438C71.6042 4.58854 71.2448 4.51562 70.8594 4.51562C70.4792 4.51562 70.1224 4.58854 69.7891 4.73438C69.4609 4.875 69.1719 5.07292 68.9219 5.32812C68.6719 5.58333 68.4766 5.88021 68.3359 6.21875C68.2005 6.55729 68.1328 6.91406 68.1328 7.28906C68.1328 7.65885 68.2005 8.01302 68.3359 8.35156C68.4766 8.6849 68.6719 8.97917 68.9219 9.23438C69.1719 9.49479 69.4609 9.69792 69.7891 9.84375C70.1224 9.98438 70.4792 10.0547 70.8594 10.0547Z" fill="#00DF7C"/>
</svg>
