<svg width="50" height="25" viewBox="0 0 50 25" fill="none" xmlns="http://www.w3.org/2000/svg">
<path d="M17.0234 11C16.7995 11 16.5964 10.9453 16.4141 10.8359C16.237 10.7266 16.1042 10.5729 16.0156 10.375L13.6406 4.9375C13.5781 4.79688 13.5469 4.65625 13.5469 4.51562C13.5469 4.38021 13.5729 4.25 13.625 4.125C13.6771 3.99479 13.75 3.88021 13.8438 3.78125C13.9375 3.68229 14.0469 3.60417 14.1719 3.54688C14.3021 3.48958 14.4401 3.46094 14.5859 3.46094C14.7839 3.46094 14.9688 3.51562 15.1406 3.625C15.3125 3.73438 15.4427 3.88542 15.5312 4.07812L16.9688 7.50781L18.3984 4.08594C18.4766 3.89844 18.6016 3.75 18.7734 3.64062C18.9453 3.52604 19.1328 3.46875 19.3359 3.46875C19.6328 3.46875 19.8828 3.57552 20.0859 3.78906C20.1797 3.88802 20.2526 4 20.3047 4.125C20.3568 4.25 20.3828 4.3776 20.3828 4.50781C20.388 4.63281 20.3568 4.77865 20.2891 4.94531L17.9297 10.375C17.8464 10.5521 17.7292 10.6979 17.5781 10.8125C17.4271 10.9271 17.2422 10.9896 17.0234 11ZM22.5781 2.82812C22.276 2.82812 22.0156 2.71875 21.7969 2.5C21.6927 2.39583 21.6094 2.27604 21.5469 2.14062C21.4896 2.00521 21.4609 1.86458 21.4609 1.71875C21.4609 1.41667 21.5729 1.15365 21.7969 0.929688C22.0104 0.716146 22.2708 0.609375 22.5781 0.609375C22.7292 0.609375 22.8724 0.638021 23.0078 0.695312C23.1432 0.747396 23.263 0.825521 23.3672 0.929688C23.5859 1.14844 23.6953 1.41146 23.6953 1.71875C23.6953 2.02083 23.5859 2.28125 23.3672 2.5C23.263 2.60417 23.1432 2.6849 23.0078 2.74219C22.8724 2.79948 22.7292 2.82812 22.5781 2.82812ZM22.5781 11.0859C22.4375 11.0859 22.3021 11.0573 22.1719 11C22.0469 10.9479 21.9375 10.875 21.8438 10.7812C21.7448 10.6875 21.6667 10.5781 21.6094 10.4531C21.5521 10.3229 21.5234 10.1901 21.5234 10.0547V4.49219C21.5234 4.35677 21.5521 4.22656 21.6094 4.10156C21.6667 3.97135 21.7448 3.85938 21.8438 3.76562C21.9375 3.67188 22.0495 3.59896 22.1797 3.54688C22.3151 3.48958 22.4531 3.46094 22.5938 3.46094C22.7292 3.46094 22.8594 3.48958 22.9844 3.54688C23.1146 3.59896 23.2266 3.67188 23.3203 3.76562C23.4141 3.85938 23.4844 3.96875 23.5312 4.09375C23.5833 4.21875 23.6094 4.35156 23.6094 4.49219V10.0547C23.6094 10.1901 23.5807 10.3229 23.5234 10.4531C23.4714 10.5781 23.3984 10.6875 23.3047 10.7812C23.2109 10.875 23.1016 10.9479 22.9766 11C22.8516 11.0573 22.7188 11.0859 22.5781 11.0859ZM25.9531 11C25.8125 11 25.6771 10.974 25.5469 10.9219C25.4167 10.8698 25.3021 10.7969 25.2031 10.7031C24.9896 10.5052 24.8828 10.2656 24.8828 9.98438V7.17188C24.8828 6.67188 24.9792 6.19531 25.1719 5.74219C25.3646 5.28906 25.6328 4.89062 25.9766 4.54688C26.3203 4.20312 26.7161 3.9375 27.1641 3.75C27.612 3.55729 28.0859 3.46094 28.5859 3.46094C29.0911 3.46094 29.5729 3.55729 30.0312 3.75C30.4948 3.9375 30.9036 4.20312 31.2578 4.54688C31.612 4.89062 31.888 5.28906 32.0859 5.74219C32.2891 6.19531 32.3906 6.67188 32.3906 7.17188V9.98438C32.3906 10.2708 32.2943 10.5104 32.1016 10.7031C32.0078 10.7969 31.8984 10.8698 31.7734 10.9219C31.6484 10.974 31.5156 11 31.375 11C31.2292 11 31.0911 10.974 30.9609 10.9219C30.8359 10.8698 30.7266 10.7969 30.6328 10.7031C30.4245 10.5104 30.3203 10.2708 30.3203 9.98438V7.17969C30.3151 6.96094 30.2656 6.7526 30.1719 6.55469C30.0781 6.35156 29.9479 6.17448 29.7812 6.02344C29.6198 5.8724 29.4349 5.75521 29.2266 5.67188C29.0182 5.58854 28.8047 5.54688 28.5859 5.54688C28.3672 5.54688 28.1589 5.58854 27.9609 5.67188C27.763 5.75 27.5938 5.85938 27.4531 6C27.3073 6.14583 27.1901 6.31771 27.1016 6.51562C27.0182 6.70833 26.974 6.91406 26.9688 7.13281V9.98438C26.9688 10.276 26.8698 10.5156 26.6719 10.7031C26.474 10.901 26.2344 11 25.9531 11ZM34.9375 2.82812C34.6354 2.82812 34.375 2.71875 34.1562 2.5C34.0521 2.39583 33.9688 2.27604 33.9062 2.14062C33.849 2.00521 33.8203 1.86458 33.8203 1.71875C33.8203 1.41667 33.9323 1.15365 34.1562 0.929688C34.3698 0.716146 34.6302 0.609375 34.9375 0.609375C35.0885 0.609375 35.2318 0.638021 35.3672 0.695312C35.5026 0.747396 35.6224 0.825521 35.7266 0.929688C35.9453 1.14844 36.0547 1.41146 36.0547 1.71875C36.0547 2.02083 35.9453 2.28125 35.7266 2.5C35.6224 2.60417 35.5026 2.6849 35.3672 2.74219C35.2318 2.79948 35.0885 2.82812 34.9375 2.82812ZM34.9375 11.0859C34.7969 11.0859 34.6615 11.0573 34.5312 11C34.4062 10.9479 34.2969 10.875 34.2031 10.7812C34.1042 10.6875 34.026 10.5781 33.9688 10.4531C33.9115 10.3229 33.8828 10.1901 33.8828 10.0547V4.49219C33.8828 4.35677 33.9115 4.22656 33.9688 4.10156C34.026 3.97135 34.1042 3.85938 34.2031 3.76562C34.2969 3.67188 34.4089 3.59896 34.5391 3.54688C34.6745 3.48958 34.8125 3.46094 34.9531 3.46094C35.0885 3.46094 35.2188 3.48958 35.3438 3.54688C35.474 3.59896 35.5859 3.67188 35.6797 3.76562C35.7734 3.85938 35.8438 3.96875 35.8906 4.09375C35.9427 4.21875 35.9688 4.35156 35.9688 4.49219V10.0547C35.9688 10.1901 35.9401 10.3229 35.8828 10.4531C35.8307 10.5781 35.7578 10.6875 35.6641 10.7812C35.5703 10.875 35.4609 10.9479 35.3359 11C35.2109 11.0573 35.0781 11.0859 34.9375 11.0859ZM4.28906 21.0938C3.77344 21.0938 3.28125 20.9948 2.8125 20.7969C2.34896 20.599 1.94271 20.3255 1.59375 19.9766C1.23958 19.6276 0.963542 19.2214 0.765625 18.7578C0.567708 18.2891 0.46875 17.7969 0.46875 17.2812C0.46875 16.7656 0.567708 16.276 0.765625 15.8125C0.963542 15.3438 1.23958 14.9323 1.59375 14.5781C1.94271 14.2292 2.34896 13.9557 2.8125 13.7578C3.28125 13.5599 3.77344 13.4609 4.28906 13.4609C4.79948 13.4609 5.28646 13.5599 5.75 13.7578C6.21875 13.9557 6.63021 14.2292 6.98438 14.5781C7.33333 14.9271 7.60677 15.3333 7.80469 15.7969C8.00781 16.2604 8.11198 16.7474 8.11719 17.2578C8.11719 17.3984 8.07031 17.5182 7.97656 17.6172C7.88281 17.7109 7.76042 17.7578 7.60938 17.7578H1.625C1.66667 18.0807 1.76302 18.3854 1.91406 18.6719C2.07031 18.9531 2.26823 19.2005 2.50781 19.4141C2.7526 19.6276 3.02604 19.7943 3.32812 19.9141C3.63542 20.0339 3.95573 20.0938 4.28906 20.0938C4.60156 20.0938 4.85677 20.0651 5.05469 20.0078C5.23177 19.9609 5.4401 19.8698 5.67969 19.7344C5.78385 19.6719 5.89062 19.6406 6 19.6406C6.14062 19.6406 6.26042 19.6979 6.35938 19.8125C6.45833 19.9219 6.50781 20.0469 6.50781 20.1875C6.50781 20.375 6.42448 20.5156 6.25781 20.6094C5.95573 20.7812 5.67188 20.901 5.40625 20.9688C5.07292 21.0521 4.70052 21.0938 4.28906 21.0938ZM7.05469 16.8828C7.01302 16.5391 6.91406 16.2214 6.75781 15.9297C6.60677 15.6328 6.40625 15.375 6.15625 15.1562C5.90625 14.9375 5.6224 14.7682 5.30469 14.6484C4.98698 14.5234 4.65365 14.4609 4.30469 14.4609C3.95052 14.4609 3.61458 14.5234 3.29688 14.6484C2.98438 14.7734 2.70573 14.9479 2.46094 15.1719C2.22135 15.3906 2.02604 15.6484 1.875 15.9453C1.72396 16.2422 1.63021 16.5547 1.59375 16.8828H7.05469ZM9.57031 21C9.42448 21 9.29688 20.9505 9.1875 20.8516C9.08333 20.7526 9.03125 20.6302 9.03125 20.4844V17.125C9.03125 16.6302 9.11979 16.1589 9.29688 15.7109C9.47396 15.263 9.72396 14.8698 10.0469 14.5312C10.3698 14.1927 10.7474 13.9297 11.1797 13.7422C11.6172 13.5547 12.0833 13.4609 12.5781 13.4609C13.0729 13.4609 13.5365 13.5547 13.9688 13.7422C14.401 13.9297 14.7786 14.1901 15.1016 14.5234C15.4193 14.862 15.6641 15.2552 15.8359 15.7031C16.013 16.1458 16.1016 16.6172 16.1016 17.1172V20.4844C16.1016 20.6354 16.0521 20.7604 15.9531 20.8594C15.8594 20.9531 15.737 21 15.5859 21C15.4401 21 15.3151 20.9531 15.2109 20.8594C15.112 20.7604 15.0625 20.6354 15.0625 20.4844V17.1562C15.0625 16.7969 15 16.4557 14.875 16.1328C14.7552 15.8099 14.5859 15.5286 14.3672 15.2891C14.138 15.0443 13.8698 14.8542 13.5625 14.7188C13.2604 14.5833 12.9323 14.5156 12.5781 14.5156C12.224 14.5156 11.8932 14.5833 11.5859 14.7188C11.2839 14.849 11.0182 15.0339 10.7891 15.2734C10.5651 15.5078 10.3906 15.7865 10.2656 16.1094C10.1406 16.4323 10.0781 16.7734 10.0781 17.1328V20.4844C10.0781 20.6354 10.0312 20.7604 9.9375 20.8594C9.84375 20.9531 9.72135 21 9.57031 21ZM21.0547 21.0938C20.5391 21.0938 20.0469 20.9948 19.5781 20.7969C19.1146 20.599 18.7083 20.3255 18.3594 19.9766C18.0052 19.6276 17.7292 19.2214 17.5312 18.7578C17.3333 18.2891 17.2344 17.7969 17.2344 17.2812C17.2344 16.7656 17.3333 16.276 17.5312 15.8125C17.7292 15.3438 18.0052 14.9323 18.3594 14.5781C18.7083 14.2292 19.1146 13.9557 19.5781 13.7578C20.0469 13.5599 20.5391 13.4609 21.0547 13.4609C21.5651 13.4609 22.0521 13.5599 22.5156 13.7578C22.9844 13.9557 23.3958 14.2292 23.75 14.5781C24.099 14.9271 24.3724 15.3333 24.5703 15.7969C24.7734 16.2604 24.8776 16.7474 24.8828 17.2578C24.8828 17.3984 24.8359 17.5182 24.7422 17.6172C24.6484 17.7109 24.526 17.7578 24.375 17.7578H18.3906C18.4323 18.0807 18.5286 18.3854 18.6797 18.6719C18.8359 18.9531 19.0339 19.2005 19.2734 19.4141C19.5182 19.6276 19.7917 19.7943 20.0938 19.9141C20.401 20.0339 20.7214 20.0938 21.0547 20.0938C21.3672 20.0938 21.6224 20.0651 21.8203 20.0078C21.9974 19.9609 22.2057 19.8698 22.4453 19.7344C22.5495 19.6719 22.6562 19.6406 22.7656 19.6406C22.9062 19.6406 23.026 19.6979 23.125 19.8125C23.224 19.9219 23.2734 20.0469 23.2734 20.1875C23.2734 20.375 23.1901 20.5156 23.0234 20.6094C22.7214 20.7812 22.4375 20.901 22.1719 20.9688C21.8385 21.0521 21.4661 21.0938 21.0547 21.0938ZM23.8203 16.8828C23.7786 16.5391 23.6797 16.2214 23.5234 15.9297C23.3724 15.6328 23.1719 15.375 22.9219 15.1562C22.6719 14.9375 22.388 14.7682 22.0703 14.6484C21.7526 14.5234 21.4193 14.4609 21.0703 14.4609C20.7161 14.4609 20.3802 14.5234 20.0625 14.6484C19.75 14.7734 19.4714 14.9479 19.2266 15.1719C18.987 15.3906 18.7917 15.6484 18.6406 15.9453C18.4896 16.2422 18.3958 16.5547 18.3594 16.8828H23.8203ZM26.4531 21C26.3073 21 26.1797 20.9505 26.0703 20.8516C25.9661 20.7526 25.9141 20.6276 25.9141 20.4766V17.4453C25.9141 16.9089 26.0156 16.3984 26.2188 15.9141C26.4271 15.4297 26.7135 15.0026 27.0781 14.6328C27.4479 14.263 27.8724 13.9766 28.3516 13.7734C28.8307 13.5651 29.3359 13.4609 29.8672 13.4609H29.9297C30.0964 13.4609 30.2266 13.5104 30.3203 13.6094C30.4193 13.7031 30.4688 13.8281 30.4688 13.9844C30.4688 14.1354 30.4167 14.2604 30.3125 14.3594C30.2135 14.4531 30.0859 14.5 29.9297 14.5H29.8672C29.4818 14.5 29.112 14.5755 28.7578 14.7266C28.4036 14.8776 28.0911 15.0885 27.8203 15.3594C27.5495 15.6302 27.3359 15.9479 27.1797 16.3125C27.0286 16.6719 26.9531 17.0495 26.9531 17.4453V20.4766C26.9531 20.6276 26.9036 20.7526 26.8047 20.8516C26.7109 20.9505 26.5938 21 26.4531 21ZM32.4609 24.2891C32.3203 24.2891 32.1927 24.237 32.0781 24.1328C31.9635 24.0339 31.9062 23.9141 31.9062 23.7734C31.9062 23.4714 32.1641 23.237 32.6797 23.0703C32.8672 23.0078 33.0651 22.9609 33.2734 22.9297C33.487 22.9036 33.6693 22.8906 33.8203 22.8906C34.0339 22.8906 34.2448 22.8984 34.4531 22.9141C34.6667 22.9297 34.8776 22.9375 35.0859 22.9375C35.7161 22.9375 36.2057 22.7891 36.5547 22.4922C36.9036 22.1953 37.0781 21.7734 37.0781 21.2266C37.0781 20.9922 37.0469 20.7865 36.9844 20.6094C36.9375 20.4948 36.8698 20.375 36.7812 20.25C36.4479 20.5208 36.0755 20.7292 35.6641 20.875C35.2526 21.0208 34.8229 21.0938 34.375 21.0938C33.8594 21.0938 33.3698 20.9974 32.9062 20.8047C32.4479 20.6068 32.0417 20.3307 31.6875 19.9766C31.3333 19.6276 31.0573 19.2214 30.8594 18.7578C30.6615 18.2943 30.5625 17.8047 30.5625 17.2891C30.5625 16.7682 30.6615 16.2734 30.8594 15.8047C31.0573 15.3359 31.3333 14.9271 31.6875 14.5781C32.0417 14.224 32.4479 13.9505 32.9062 13.7578C33.3698 13.5599 33.8594 13.4609 34.375 13.4609C34.8958 13.4609 35.388 13.5599 35.8516 13.7578C36.3203 13.9557 36.7292 14.2292 37.0781 14.5781C37.4271 14.9323 37.6979 15.3438 37.8906 15.8125C38.0885 16.276 38.1875 16.7682 38.1875 17.2891C38.1875 18.0807 37.9583 18.8047 37.5 19.4609C37.7135 19.6901 37.8672 19.9505 37.9609 20.2422C38.0599 20.5286 38.1094 20.8568 38.1094 21.2266C38.1094 21.6536 38.0365 22.0365 37.8906 22.375C37.75 22.7188 37.5495 23.013 37.2891 23.2578C37.0443 23.487 36.7604 23.6641 36.4375 23.7891C36.1146 23.9141 35.7786 23.9792 35.4297 23.9844C35.1953 23.9844 34.9453 23.9609 34.6797 23.9141C34.388 23.8724 34.125 23.8516 33.8906 23.8516C33.7135 23.8516 33.5339 23.8724 33.3516 23.9141C33.1224 23.9661 32.9297 24.0521 32.7734 24.1719C32.6745 24.25 32.5703 24.2891 32.4609 24.2891ZM34.375 20.0547C34.7604 20.0547 35.1224 19.9844 35.4609 19.8438C35.7995 19.6979 36.0964 19.4948 36.3516 19.2344C36.6068 18.9792 36.8047 18.6849 36.9453 18.3516C37.0859 18.013 37.1562 17.6589 37.1562 17.2891C37.1562 16.9141 37.0859 16.5573 36.9453 16.2188C36.8047 15.8802 36.6068 15.5833 36.3516 15.3281C36.0964 15.0729 35.7969 14.875 35.4531 14.7344C35.1146 14.5885 34.7552 14.5156 34.375 14.5156C33.9948 14.5156 33.6354 14.5885 33.2969 14.7344C32.9635 14.875 32.6693 15.0729 32.4141 15.3281C32.1589 15.5833 31.9583 15.8802 31.8125 16.2188C31.6719 16.5573 31.6016 16.9141 31.6016 17.2891C31.6016 17.6589 31.6719 18.013 31.8125 18.3516C31.9583 18.6849 32.1589 18.9792 32.4141 19.2344C32.6693 19.4948 32.9635 19.6979 33.2969 19.8438C33.6354 19.9844 33.9948 20.0547 34.375 20.0547ZM39.875 12.3984C39.6979 12.3984 39.5495 12.3385 39.4297 12.2188C39.3099 12.0938 39.25 11.9453 39.25 11.7734C39.25 11.5964 39.3099 11.4479 39.4297 11.3281C39.5495 11.2083 39.6979 11.1484 39.875 11.1484C40.0521 11.1484 40.2005 11.2083 40.3203 11.3281C40.4453 11.4479 40.5078 11.5964 40.5078 11.7734C40.5078 11.9453 40.4453 12.0938 40.3203 12.2188C40.2005 12.3385 40.0521 12.3984 39.875 12.3984ZM39.875 21.0391C39.7292 21.0391 39.6042 20.9896 39.5 20.8906C39.3958 20.7865 39.3438 20.6615 39.3438 20.5156V13.9922C39.3438 13.8411 39.3958 13.7161 39.5 13.6172C39.6042 13.513 39.7292 13.4609 39.875 13.4609C40.026 13.4609 40.1484 13.513 40.2422 13.6172C40.3411 13.7161 40.3906 13.8411 40.3906 13.9922V20.5156C40.3906 20.6615 40.3385 20.7865 40.2344 20.8906C40.1354 20.9896 40.0156 21.0391 39.875 21.0391ZM45.3594 21.0938C44.8438 21.0938 44.3568 20.9974 43.8984 20.8047C43.4401 20.6068 43.0365 20.3307 42.6875 19.9766C42.3385 19.6276 42.0677 19.2214 41.875 18.7578C41.6823 18.2943 41.5859 17.8047 41.5859 17.2891C41.5859 16.7682 41.6823 16.276 41.875 15.8125C42.0677 15.3438 42.3385 14.9323 42.6875 14.5781C43.0365 14.224 43.4401 13.9505 43.8984 13.7578C44.3568 13.5599 44.8438 13.4609 45.3594 13.4609C45.8802 13.4609 46.3698 13.5599 46.8281 13.7578C47.2865 13.9505 47.6901 14.224 48.0391 14.5781C48.3828 14.9271 48.651 15.3359 48.8438 15.8047C49.0365 16.2734 49.1328 16.7682 49.1328 17.2891V20.5C49.1328 20.651 49.0807 20.7786 48.9766 20.8828C48.8724 20.987 48.7448 21.0391 48.5938 21.0391C48.4427 21.0391 48.3203 20.9896 48.2266 20.8906C48.1328 20.7865 48.0859 20.6562 48.0859 20.5L48.0781 19.9375C47.724 20.3073 47.3151 20.5938 46.8516 20.7969C46.3932 20.9948 45.8958 21.0938 45.3594 21.0938ZM45.3594 20.0547C45.7448 20.0547 46.1042 19.9844 46.4375 19.8438C46.776 19.6979 47.0677 19.4948 47.3125 19.2344C47.5573 18.9792 47.7474 18.6849 47.8828 18.3516C48.0182 18.013 48.0859 17.6589 48.0859 17.2891C48.0859 16.9141 48.0182 16.5573 47.8828 16.2188C47.7474 15.875 47.5573 15.5781 47.3125 15.3281C47.0625 15.0729 46.7708 14.875 46.4375 14.7344C46.1042 14.5885 45.7448 14.5156 45.3594 14.5156C44.9792 14.5156 44.6224 14.5885 44.2891 14.7344C43.9609 14.875 43.6719 15.0729 43.4219 15.3281C43.1719 15.5833 42.9766 15.8802 42.8359 16.2188C42.7005 16.5573 42.6328 16.9141 42.6328 17.2891C42.6328 17.6589 42.7005 18.013 42.8359 18.3516C42.9766 18.6849 43.1719 18.9792 43.4219 19.2344C43.6719 19.4948 43.9609 19.6979 44.2891 19.8438C44.6224 19.9844 44.9792 20.0547 45.3594 20.0547Z" fill="#00DF7C"/>
</svg>
